<svg width="63" height="64" viewBox="0 0 63 64" fill="none" xmlns="http://www.w3.org/2000/svg">
<path d="M31.9126 63.1603C27.5376 63.1603 23.436 62.3269 19.6079 60.6603C15.7798 58.9936 12.4465 56.741 9.60791 53.9025C6.76937 51.0639 4.51676 47.7306 2.8501 43.9025C1.18343 40.0743 0.350098 35.9728 0.350098 31.5978C0.350098 23.9936 2.77197 17.2879 7.61572 11.4806C12.4595 5.6733 18.6313 2.06653 26.1313 0.660278C25.1938 5.81653 25.4803 10.8556 26.9907 15.7775C28.5011 20.6993 31.1053 25.0092 34.8032 28.7072C38.5011 32.4051 42.811 35.0092 47.7329 36.5197C52.6548 38.0301 57.6938 38.3165 62.8501 37.379C61.4959 44.879 57.9022 51.0509 52.0689 55.8947C46.2355 60.7384 39.5168 63.1603 31.9126 63.1603ZM31.9126 56.9103C36.4959 56.9103 40.7407 55.7644 44.647 53.4728C48.5532 51.1811 51.6261 48.0301 53.8657 44.0197C49.3866 43.603 45.1418 42.4702 41.1313 40.6212C37.1209 38.7723 33.5272 36.2592 30.3501 33.0822C27.173 29.9051 24.647 26.3113 22.772 22.3009C20.897 18.2905 19.7772 14.0457 19.4126 9.56653C15.4022 11.8061 12.2642 14.892 9.99854 18.8243C7.73291 22.7566 6.6001 27.0144 6.6001 31.5978C6.6001 38.629 9.06104 44.6056 13.9829 49.5275C18.9048 54.4493 24.8813 56.9103 31.9126 56.9103Z" fill="white"/>
</svg>
