<svg width="72" height="72" viewBox="0 0 72 72" fill="none" xmlns="http://www.w3.org/2000/svg">
<path d="M35.8535 71.2215L25.3848 60.909H10.8535V46.3778L0.541016 35.909L10.8535 25.4403V10.909H25.3848L35.8535 0.596527L46.3223 10.909H60.8535V25.4403L71.166 35.909L60.8535 46.3778V60.909H46.3223L35.8535 71.2215ZM35.8535 51.534C40.1764 51.534 43.8613 50.0106 46.9082 46.9637C49.9551 43.9168 51.4785 40.2319 51.4785 35.909C51.4785 31.5861 49.9551 27.9012 46.9082 24.8543C43.8613 21.8075 40.1764 20.284 35.8535 20.284C31.5306 20.284 27.8457 21.8075 24.7988 24.8543C21.752 27.9012 20.2285 31.5861 20.2285 35.909C20.2285 40.2319 21.752 43.9168 24.7988 46.9637C27.8457 50.0106 31.5306 51.534 35.8535 51.534ZM35.8535 62.4715L43.666 54.659H54.6035V43.7215L62.416 35.909L54.6035 28.0965V17.159H43.666L35.8535 9.34653L28.041 17.159H17.1035V28.0965L9.29102 35.909L17.1035 43.7215V54.659H28.041L35.8535 62.4715Z" fill="#1C1B1F"/>
</svg>
